<?xml version="1.0" encoding="UTF-8" standalone="no"?>
<!-- Created with Inkscape (http://www.inkscape.org/) -->

<svg
   xmlns:dc="http://purl.org/dc/elements/1.1/"
   xmlns:cc="http://creativecommons.org/ns#"
   xmlns:rdf="http://www.w3.org/1999/02/22-rdf-syntax-ns#"
   xmlns:svg="http://www.w3.org/2000/svg"
   xmlns="http://www.w3.org/2000/svg"
   version="1.2"
   width="349.50482"
   height="172.78571"
   id="svg3758">
  <defs
     id="defs3760" />
  <metadata
     id="metadata3763">
    <rdf:RDF>
      <cc:Work
         rdf:about="">
        <dc:format>image/svg+xml</dc:format>
        <dc:type
           rdf:resource="http://purl.org/dc/dcmitype/StillImage" />
        <dc:title></dc:title>
      </cc:Work>
    </rdf:RDF>
  </metadata>
  <g
     transform="translate(-349.49884,-445.25505)"
     id="layer1">
    <g
       transform="translate(283.91912,291.4086)"
       id="flowRoot3766"
       style="font-size:40px;font-style:normal;font-variant:normal;font-weight:bold;font-stretch:normal;line-height:125%;letter-spacing:0px;word-spacing:0px;fill:#000000;fill-opacity:1;stroke:none;font-family:Liberation Mono;-inkscape-font-specification:Liberation Mono Bold">
      <g
         id="g3800">
        <path
           d="m 65.579715,277 17.621285,0 0,-7.05591 -12.140799,0 12.026622,-34.99155 0,-5.03993 -16.36534,0 0,7.05591 10.922913,0 -12.064681,34.99154 z"
           id="path3786"
           style="font-size:72px;font-weight:900;font-family:Source Sans Pro Semibold;-inkscape-font-specification:Source Sans Pro Semibold" />
        <path
           d="m 123.63971,257.70425 0.89728,-5.75993 c 0.40881,-2.49294 0.80056,-5.0489 1.17526,-7.6679 0.37467,-2.61893 0.73716,-5.24689 1.08747,-7.8839 l 0.15605,0 c 0.37142,2.60551 0.75017,5.22447 1.13624,7.8569 0.38605,2.6325 0.77455,5.19746 1.1655,7.6949 l 0.89729,5.75993 z M 133.15876,277 l 4.79854,0 -8.30966,-47.08739 -5.30571,0 -8.34868,47.08739 4.64249,0 1.98964,-12.74384 8.54374,0 z"
           id="path3788"
           style="font-size:72px;font-weight:900;font-family:Source Sans Pro Semibold;-inkscape-font-specification:Source Sans Pro Semibold" />
        <path
           d="m 174.36833,253.6003 c 0.0642,7.84642 0.98643,13.84333 2.76681,17.99077 1.78037,4.14745 4.03391,6.23842 6.76063,6.27292 1.33126,-0.0105 2.54224,-0.60149 3.63294,-1.77298 1.09066,-1.17148 2.06105,-2.86046 2.91116,-5.06693 l -2.05305,-5.11194 c -0.58746,1.48649 -1.24107,2.63548 -1.96083,3.44696 -0.71978,0.81149 -1.5418,1.22249 -2.46606,1.23298 -1.77037,-0.0465 -3.16981,-1.57347 -4.19833,-4.58094 -1.02854,-3.00745 -1.55383,-7.21639 -1.57588,-12.62684 0.0314,-5.3414 0.5861,-9.50834 1.66409,-12.50084 1.07798,-2.99242 2.49079,-4.5134 4.23843,-4.56294 0.79528,0.0136 1.50636,0.36454 2.13325,1.05299 0.62686,0.68853 1.20963,1.63352 1.7483,2.83496 l 2.05305,-5.18393 c -0.66365,-1.63493 -1.50171,-3.02692 -2.51418,-4.17595 -1.01251,-1.14893 -2.16334,-1.74893 -3.4525,-1.79997 -2.76147,0.06 -5.04976,2.22602 -6.86488,6.49791 -1.81514,4.27199 -2.75612,10.2899 -2.82295,18.05377 z"
           id="path3790"
           style="font-size:72px;font-weight:900;font-family:Source Sans Pro Semibold;-inkscape-font-specification:Source Sans Pro Semibold" />
        <path
           d="m 232.85705,277 4.00857,0 0,-20.87973 9.12297,0 0,20.87973 4.00857,0 0,-47.08739 -4.00857,0 0,18.93575 -9.12297,0 0,-18.93575 -4.00857,0 z"
           id="path3792"
           style="font-size:72px;font-weight:900;font-family:Source Sans Pro Semibold;-inkscape-font-specification:Source Sans Pro Semibold" />
        <path
           d="m 295.15392,277 11.41988,0 c -0.70344,0.81299 -1.35216,2.01297 -1.94614,3.59995 -0.594,1.58698 -0.90964,3.43495 -0.94689,5.54393 0.0262,2.13146 0.41157,3.75444 1.15626,4.86894 0.74465,1.11447 1.69155,1.67546 2.84069,1.68298 0.60984,-0.015 1.23635,-0.23702 1.87952,-0.66599 0.64314,-0.42901 1.184,-0.97501 1.62258,-1.63798 l -1.06586,-4.31995 c -0.21017,0.29399 -0.43698,0.53399 -0.68043,0.71999 -0.24348,0.18599 -0.49884,0.28199 -0.76609,0.288 -0.45443,0.004 -0.84937,-0.23851 -1.18481,-0.72899 -0.33547,-0.4905 -0.51153,-1.25549 -0.52817,-2.29497 0.0317,-1.78798 0.37748,-3.35996 1.03731,-4.71594 0.65979,-1.35598 1.44332,-2.13597 2.35059,-2.33997 l 0.15226,0 0,-7.05591 -10.92501,0 0,-13.89582 8.94557,0 0,-7.05591 -8.94557,0 0,-12.02384 10.54435,0 0,-7.05591 -14.96004,0 z"
           id="path3794"
           style="font-size:72px;font-weight:900;font-family:Source Sans Pro Semibold;-inkscape-font-specification:Source Sans Pro Semibold" />
        <path
           d="m 350.14671,277 3.64601,0 0,-40.03148 5.90905,0 0,-7.05591 -15.49554,0 0,7.05591 5.94048,0 z"
           id="path3796"
           style="font-size:72px;font-weight:900;font-family:Source Sans Pro Semibold;-inkscape-font-specification:Source Sans Pro Semibold" />
        <path
           d="m 402.62941,257.70425 0.78057,-5.75993 c 0.35563,-2.49294 0.69642,-5.0489 1.02237,-7.6679 0.32594,-2.61893 0.64127,-5.24689 0.94601,-7.8839 l 0.13576,0 c 0.3231,2.60551 0.65258,5.22447 0.98843,7.8569 0.33583,2.6325 0.67379,5.19746 1.01389,7.6949 l 0.78056,5.75993 z M 410.9102,277 l 4.17434,0 -7.22873,-47.08739 -4.61552,0 -7.26266,47.08739 4.03858,0 1.73082,-12.74384 7.43235,0 z"
           id="path3798"
           style="font-size:72px;font-weight:900;font-family:Source Sans Pro Semibold;-inkscape-font-specification:Source Sans Pro Semibold" />
      </g>
    </g>
    <path
       d="m 477.85714,183.39286 172.85715,0 -86.42857,-43.57143 z"
       transform="translate(-39.785721,305.93362)"
       id="path3809"
       style="fill:#000000;fill-opacity:1;stroke:#000000;stroke-width:1px;stroke-linecap:butt;stroke-linejoin:miter;stroke-opacity:1" />
    <rect
       width="173.57143"
       height="7.8571429"
       x="477.85715"
       y="303.75"
       transform="translate(-39.785721,305.93362)"
       id="rect4579"
       style="fill:#000000;fill-opacity:1;fill-rule:nonzero;stroke:#000000;stroke-opacity:1" />
  </g>
</svg>
